<svg width="1542" height="384" viewBox="0 0 1542 384" fill="none" xmlns="http://www.w3.org/2000/svg">
<rect width="1542" height="384" fill="white"/>
<g filter="url(#filter0_d_3_17260)">
<rect x="188" y="248.5" width="120" height="120" rx="60" fill="white" shape-rendering="crispEdges"/>
<rect x="188.5" y="249" width="119" height="119" rx="59.5" stroke="#DAE0E6" shape-rendering="crispEdges"/>
<path d="M227.717 324.608C226.524 324.611 225.351 324.297 224.318 323.698C223.286 323.099 222.431 322.236 221.841 321.198C221.26 320.168 220.97 318.999 221.002 317.817C221.035 316.634 221.389 315.483 222.025 314.486L234.127 295.482C234.747 294.46 235.626 293.621 236.676 293.051C237.725 292.481 238.908 292.199 240.101 292.236C241.295 292.264 242.459 292.609 243.474 293.235C244.49 293.862 245.322 294.746 245.883 295.799C247.011 297.933 246.87 300.499 245.519 302.502L233.425 321.506C232.812 322.462 231.967 323.247 230.969 323.79C229.971 324.332 228.853 324.614 227.717 324.608Z" fill="#F62B54"/>
<path d="M248.475 324.608C246.035 324.608 243.789 323.303 242.609 321.206C242.029 320.178 241.74 319.013 241.773 317.833C241.805 316.654 242.158 315.506 242.794 314.511L254.873 295.551C255.483 294.515 256.359 293.661 257.411 293.078C258.462 292.496 259.65 292.204 260.852 292.236C263.313 292.289 265.544 293.666 266.672 295.82C267.793 297.974 267.629 300.556 266.236 302.553L254.16 321.514C253.548 322.465 252.707 323.248 251.714 323.789C250.72 324.329 249.607 324.611 248.475 324.608Z" fill="#FFCC00"/>
<path d="M268.769 324.767C272.211 324.767 275 322.036 275 318.668C275 315.299 272.211 312.568 268.769 312.568C265.328 312.568 262.539 315.299 262.539 318.668C262.539 322.036 265.328 324.767 268.769 324.767Z" fill="#00CA72"/>
</g>
<g filter="url(#filter1_d_3_17260)">
<rect x="440" y="87.5" width="120" height="120" rx="60" fill="white" shape-rendering="crispEdges"/>
<rect x="440.5" y="88" width="119" height="119" rx="59.5" stroke="#DAE0E6" shape-rendering="crispEdges"/>
<path d="M517.911 130.898C517.874 130.625 517.635 130.474 517.438 130.458C517.241 130.441 513.397 130.383 513.397 130.383C513.397 130.383 510.182 127.261 509.865 126.943C509.547 126.625 508.927 126.721 508.686 126.793C508.686 126.793 508.082 126.98 507.071 127.294C506.901 126.745 506.653 126.071 506.297 125.394C505.153 123.21 503.477 122.055 501.451 122.052H501.444C501.303 122.052 501.163 122.065 501.023 122.077C500.963 122.005 500.903 121.935 500.84 121.866C499.957 120.922 498.826 120.462 497.47 120.502C494.855 120.577 492.249 122.467 490.137 125.822C488.651 128.183 487.52 131.15 487.199 133.446C484.195 134.377 482.095 135.027 482.049 135.042C480.532 135.518 480.485 135.565 480.287 136.994C480.14 138.074 476.173 168.75 476.173 168.75L509.418 174.5L523.827 170.918C523.827 170.918 517.949 131.171 517.911 130.898ZM505.406 127.809C504.641 128.046 503.77 128.315 502.826 128.607C502.807 127.283 502.65 125.44 502.032 123.848C504.017 124.224 504.994 126.47 505.406 127.809ZM501.087 129.147C499.345 129.686 497.443 130.275 495.536 130.865C496.073 128.811 497.09 126.766 498.339 125.425C498.804 124.926 499.454 124.371 500.224 124.053C500.948 125.563 501.105 127.701 501.087 129.147ZM497.523 122.243C498.137 122.23 498.654 122.365 499.096 122.655C498.389 123.022 497.706 123.55 497.064 124.237C495.403 126.02 494.13 128.787 493.622 131.457C492.038 131.947 490.489 132.428 489.063 132.868C489.963 128.666 493.485 122.36 497.523 122.243Z" fill="#95BF47"/>
<path d="M517.438 130.458C517.241 130.441 513.397 130.383 513.397 130.383C513.397 130.383 510.182 127.261 509.865 126.943C509.746 126.825 509.587 126.765 509.42 126.739L509.421 174.499L523.827 170.918C523.827 170.918 517.949 131.171 517.911 130.898C517.874 130.625 517.635 130.474 517.438 130.458Z" fill="#5E8E3E"/>
<path d="M501.433 137.867L499.76 144.128C499.76 144.128 497.893 143.279 495.68 143.418C492.435 143.623 492.401 145.67 492.434 146.184C492.61 148.984 499.977 149.595 500.39 156.154C500.715 161.313 497.653 164.843 493.241 165.122C487.945 165.456 485.03 162.332 485.03 162.332L486.152 157.559C486.152 157.559 489.087 159.773 491.436 159.625C492.97 159.528 493.518 158.28 493.463 157.397C493.232 153.745 487.234 153.96 486.855 147.959C486.535 142.909 489.852 137.791 497.171 137.33C499.99 137.148 501.433 137.867 501.433 137.867Z" fill="white"/>
</g>
<g filter="url(#filter2_d_3_17260)">
<rect x="136" y="17.5" width="120" height="120" rx="60" fill="white" shape-rendering="crispEdges"/>
<rect x="136.5" y="18" width="119" height="119" rx="59.5" stroke="#DAE0E6" shape-rendering="crispEdges"/>
<path d="M222.604 71.7125C220.07 60.0623 206.108 53.2114 191.414 56.4065C176.72 59.6016 166.866 71.6396 169.396 83.2864C171.927 94.9333 185.892 101.791 200.583 98.5924C215.274 95.394 225.135 83.3726 222.604 71.7125ZM196.002 88.2382C193.879 88.2382 191.804 87.6084 190.039 86.4284C188.274 85.2484 186.899 83.5712 186.086 81.609C185.274 79.6468 185.062 77.4876 185.476 75.4044C185.89 73.3213 186.912 71.4079 188.413 69.906C189.914 68.4042 191.826 67.3814 193.908 66.9671C195.99 66.5527 198.148 66.7654 200.109 67.5782C202.07 68.391 203.746 69.7674 204.925 71.5334C206.105 73.2993 206.734 75.3756 206.734 77.4995C206.734 78.9097 206.456 80.3061 205.917 81.609C205.378 82.9119 204.587 84.0957 203.591 85.0929C202.594 86.0901 201.411 86.8811 200.109 87.4207C198.807 87.9604 197.411 88.2382 196.002 88.2382Z" fill="#008C99"/>
<path d="M198.38 62.4653C195.333 62.4659 192.354 63.3708 189.82 65.0654C187.286 66.76 185.312 69.1683 184.146 71.9858C182.98 74.8032 182.675 77.9033 183.27 80.894C183.865 83.8847 185.333 86.6318 187.488 88.7878C189.644 90.9438 192.389 92.4119 195.378 93.0066C198.367 93.6013 201.466 93.2957 204.281 92.1286C207.097 90.9615 209.503 88.9853 211.196 86.4498C212.889 83.9142 213.793 80.9333 213.793 77.8839C213.793 75.8589 213.394 73.8536 212.62 71.9827C211.845 70.1118 210.71 68.4119 209.278 66.9801C207.847 65.5483 206.148 64.4127 204.278 63.638C202.408 62.8633 200.404 62.4648 198.38 62.4653ZM196.005 86.8793C194.151 86.8793 192.339 86.3292 190.797 85.2985C189.255 84.2678 188.054 82.8029 187.344 81.089C186.635 79.375 186.449 77.4891 186.811 75.6696C187.173 73.8501 188.066 72.1787 189.377 70.8669C190.688 69.5552 192.358 68.6618 194.176 68.2999C195.995 67.938 197.88 68.1237 199.592 68.8337C201.305 69.5436 202.769 70.7458 203.799 72.2883C204.829 73.8308 205.379 75.6443 205.379 77.4995C205.379 79.9866 204.392 82.3719 202.635 84.1308C200.878 85.8898 198.491 86.8784 196.005 86.8793Z" fill="#70CCD3"/>
</g>
<g filter="url(#filter3_d_3_17260)">
<rect x="265" y="123.5" width="88" height="88" rx="44" fill="white" shape-rendering="crispEdges"/>
<rect x="265.5" y="124" width="87" height="87" rx="43.5" stroke="#DAE0E6" shape-rendering="crispEdges"/>
<path d="M329.954 167.5C329.954 179.098 320.573 188.5 309 188.5C297.427 188.5 288.046 179.098 288.046 167.5C288.046 155.902 297.427 146.5 309 146.5C320.573 146.5 329.954 155.902 329.954 167.5Z" fill="white"/>
<path d="M309 146.5C297.427 146.5 288.046 155.902 288.046 167.5C288.046 176.397 293.566 183.999 301.361 187.059C301.178 185.398 301.012 182.842 301.434 181.029C301.815 179.39 303.891 170.59 303.891 170.59C303.891 170.59 303.264 169.332 303.264 167.472C303.264 164.552 304.953 162.372 307.056 162.372C308.844 162.372 309.707 163.717 309.707 165.33C309.707 167.132 308.562 169.826 307.972 172.323C307.478 174.413 309.018 176.117 311.075 176.117C314.799 176.117 317.662 172.182 317.662 166.501C317.662 161.473 314.057 157.957 308.909 157.957C302.947 157.957 299.447 162.439 299.447 167.071C299.447 168.876 300.141 170.811 301.007 171.863C301.178 172.071 301.203 172.253 301.152 172.465C300.993 173.129 300.639 174.555 300.57 174.847C300.479 175.231 300.266 175.313 299.869 175.128C297.252 173.907 295.616 170.072 295.616 166.992C295.616 160.368 300.419 154.284 309.461 154.284C316.73 154.284 322.379 159.475 322.379 166.413C322.379 173.65 317.826 179.475 311.506 179.475C309.382 179.475 307.386 178.369 306.703 177.064C306.703 177.064 305.652 181.073 305.398 182.056C304.924 183.88 303.647 186.166 302.793 187.561C304.754 188.169 306.84 188.5 309 188.5C320.573 188.5 329.954 179.098 329.954 167.5C329.954 155.902 320.573 146.5 309 146.5Z" fill="#E60023"/>
</g>
<g filter="url(#filter4_d_3_17260)">
<rect x="71" y="160.5" width="88" height="88" rx="44" fill="white" shape-rendering="crispEdges"/>
<rect x="71.5" y="161" width="87" height="87" rx="43.5" stroke="#DAE0E6" shape-rendering="crispEdges"/>
<path d="M115.028 193.351L104.514 200.074L115.028 206.797L104.514 213.52L94 206.741L104.514 200.018L94 193.351L104.514 186.628L115.028 193.351ZM104.458 215.649L114.972 208.926L125.486 215.649L114.972 222.372L104.458 215.649ZM115.028 206.741L125.542 200.018L115.028 193.351L125.486 186.628L136 193.351L125.486 200.074L136 206.797L125.486 213.52L115.028 206.741Z" fill="#0061FF"/>
</g>
<g filter="url(#filter5_d_3_17260)">
<rect x="364" y="221.5" width="88" height="88" rx="44" fill="white" shape-rendering="crispEdges"/>
<rect x="364.5" y="222" width="87" height="87" rx="43.5" stroke="#DAE0E6" shape-rendering="crispEdges"/>
<path d="M408 278.747C408.441 278.747 408.861 278.642 409.26 278.411L413.857 275.766C414.781 275.241 415.851 275.01 416.922 275.136C422.506 275.787 426.411 276.836 427.566 277.172C427.797 277.235 428.07 277.151 428.216 276.962C428.406 276.731 428.636 276.354 428.825 275.808C428.993 275.283 429.014 274.842 428.993 274.527C428.972 274.275 428.804 274.044 428.552 273.981C426.747 273.456 418.749 271.294 408 271.294C397.251 271.294 389.253 273.456 387.448 273.981C387.196 274.044 387.028 274.275 387.007 274.527C386.986 274.821 387.007 275.262 387.175 275.808C387.342 276.354 387.595 276.731 387.783 276.962C387.93 277.151 388.203 277.235 388.434 277.172C389.589 276.836 393.515 275.787 399.078 275.136C400.148 275.01 401.219 275.241 402.143 275.766L406.74 278.411C407.139 278.642 407.58 278.747 408 278.747ZM400.337 263.862C400.589 264.303 400.988 264.597 401.45 264.723C401.912 264.849 402.395 264.786 402.836 264.534C403.276 264.282 403.57 263.883 403.696 263.422C403.822 262.96 403.759 262.477 403.507 262.036L399.372 254.877C399.246 254.646 398.973 254.562 398.721 254.583C398.385 254.604 397.923 254.772 397.377 255.087C396.832 255.402 396.454 255.717 396.265 255.99C396.118 256.2 396.076 256.473 396.202 256.704L400.337 263.862ZM396.559 268.985C396.999 269.237 397.503 269.279 397.944 269.174C398.406 269.048 398.805 268.754 399.057 268.313C399.309 267.872 399.351 267.368 399.246 266.927C399.141 266.487 398.826 266.067 398.385 265.815L391.226 261.679C390.995 261.553 390.723 261.595 390.513 261.742C390.24 261.931 389.925 262.309 389.61 262.855C389.295 263.401 389.127 263.862 389.106 264.198C389.085 264.471 389.19 264.723 389.4 264.849L396.559 268.985ZM409.826 261.322C409.826 261.826 409.616 262.288 409.302 262.624C408.966 262.96 408.525 263.149 408 263.149C407.496 263.149 407.034 262.939 406.698 262.624C406.363 262.288 406.174 261.847 406.174 261.322V253.072C406.174 252.799 406.342 252.589 406.593 252.484C406.887 252.337 407.37 252.253 408 252.253C408.63 252.253 409.113 252.337 409.406 252.484C409.637 252.61 409.826 252.799 409.826 253.072V261.322ZM415.663 263.862C415.411 264.303 415.012 264.597 414.55 264.723C414.088 264.849 413.605 264.786 413.164 264.534C412.724 264.282 412.43 263.883 412.304 263.422C412.178 262.96 412.241 262.477 412.493 262.036L416.628 254.877C416.754 254.646 417.027 254.562 417.279 254.583C417.615 254.604 418.077 254.772 418.623 255.087C419.168 255.402 419.546 255.717 419.735 255.99C419.882 256.2 419.924 256.473 419.798 256.704L415.663 263.862ZM419.441 268.985C419.001 269.237 418.497 269.279 418.056 269.174C417.594 269.048 417.195 268.754 416.943 268.313C416.691 267.872 416.649 267.368 416.754 266.927C416.88 266.466 417.174 266.067 417.615 265.815L424.774 261.679C425.005 261.553 425.278 261.595 425.487 261.742C425.76 261.931 426.075 262.309 426.39 262.855C426.705 263.401 426.873 263.862 426.894 264.198C426.915 264.471 426.81 264.723 426.6 264.849L419.441 268.985Z" fill="#0770E3"/>
</g>
<g filter="url(#filter6_d_3_17260)">
<rect x="584" y="15.5" width="88" height="88" rx="44" fill="white" shape-rendering="crispEdges"/>
<rect x="584.5" y="16" width="87" height="87" rx="43.5" stroke="#DAE0E6" shape-rendering="crispEdges"/>
<path d="M638.822 51.0074L627.998 44.7537L617.177 51.0074V44.7537L628 38.5L638.823 44.7537L638.822 51.0074Z" fill="#A435F0"/>
<path d="M622.847 56.2602V70.0441C622.847 73.6054 625.505 75.3417 628 75.3417C630.517 75.3417 633.155 73.5602 633.155 69.9971V56.2602H638.823V70.3732C638.823 73.6542 637.792 76.1846 635.732 77.9209C633.669 79.6554 631.093 80.5 627.951 80.5C624.813 80.5 622.236 79.6571 620.223 77.9209C618.208 76.1863 617.177 73.75 617.177 70.5126V56.2602H622.847Z" fill="black"/>
</g>
<g filter="url(#filter7_d_3_17260)">
<rect x="878" y="249.5" width="88" height="88" rx="44" fill="white" shape-rendering="crispEdges"/>
<rect x="878.5" y="250" width="87" height="87" rx="43.5" stroke="#DAE0E6" shape-rendering="crispEdges"/>
<path d="M920.961 292.458H901.003V272.5H920.961V292.458Z" fill="#F1511B"/>
<path d="M942.997 292.458H923.039V272.5H942.997V292.458Z" fill="#80CC28"/>
<path d="M920.96 314.5H901.003V294.542H920.96V314.5Z" fill="#00ADEF"/>
<path d="M942.997 314.5H923.039V294.542H942.997V314.5Z" fill="#FBBC09"/>
</g>
<g filter="url(#filter8_d_3_17260)">
<rect x="940" y="135.5" width="88" height="88" rx="44" fill="white" shape-rendering="crispEdges"/>
<rect x="940.5" y="136" width="87" height="87" rx="43.5" stroke="#DAE0E6" shape-rendering="crispEdges"/>
<path d="M1004.99 178.627C1005.05 179.775 1004.91 180.904 1004.58 182.013C1004.27 183.103 1003.78 184.154 1003.13 185.088C1002.49 186.041 1001.69 186.878 1000.78 187.559L1000.76 187.579L992.001 194.137L987.672 197.406L985.059 199.391C984.903 199.508 984.734 199.592 984.552 199.644C984.37 199.709 984.182 199.741 983.987 199.741C983.792 199.741 983.603 199.709 983.421 199.644C983.239 199.592 983.077 199.508 982.934 199.391L980.302 197.406L975.993 194.137L967.296 187.618L967.257 187.579L967.218 187.559C966.321 186.878 965.522 186.041 964.878 185.088C964.215 184.154 963.728 183.103 963.416 182.013C963.104 180.904 962.968 179.775 963.006 178.627C963.065 177.479 963.299 176.35 963.708 175.28L963.767 175.143L969.48 160.217C969.506 160.139 969.538 160.068 969.577 160.003C969.616 159.938 969.662 159.873 969.714 159.808C969.766 159.744 969.818 159.685 969.87 159.633C969.935 159.581 970 159.536 970.065 159.497C970.26 159.38 970.494 159.302 970.728 159.264C970.962 159.244 971.196 159.283 971.41 159.361C971.644 159.439 971.839 159.575 971.995 159.75C972.151 159.925 972.268 160.139 972.327 160.373L976.187 172.185H991.806L995.666 160.373C995.744 160.139 995.842 159.925 996.017 159.75C996.173 159.575 996.368 159.439 996.583 159.361C996.817 159.283 997.051 159.244 997.285 159.264C997.519 159.302 997.733 159.38 997.948 159.497C998.013 159.536 998.071 159.581 998.123 159.633C998.188 159.685 998.247 159.744 998.299 159.808L998.416 160.003C998.455 160.068 998.494 160.139 998.533 160.217L1004.25 175.124L1004.3 175.28C1004.71 176.35 1004.95 177.479 1004.99 178.627Z" fill="#E24329"/>
<path d="M1004.99 178.627C1005.05 179.775 1004.91 180.904 1004.6 182.013C1004.27 183.103 1003.78 184.154 1003.13 185.088C1002.49 186.041 1001.69 186.878 1000.78 187.559L1000.76 187.579L992.001 194.137L984.006 188.085L996.563 178.588C997.122 178.16 997.707 177.771 998.318 177.42C998.929 177.057 999.56 176.733 1000.21 176.447C1000.86 176.149 1001.52 175.889 1002.2 175.669C1002.86 175.448 1003.54 175.267 1004.25 175.124L1004.3 175.28C1004.71 176.35 1004.95 177.479 1004.99 178.627Z" fill="#FC6D26"/>
<path d="M984.006 188.085L992.001 194.137L987.672 197.406L985.059 199.391C984.903 199.508 984.734 199.592 984.552 199.644C984.37 199.709 984.182 199.741 983.987 199.741C983.792 199.741 983.603 199.709 983.421 199.644C983.239 199.592 983.077 199.508 982.934 199.391L980.302 197.406L975.993 194.137L984.006 188.085Z" fill="#FCA326"/>
<path d="M983.987 188.085L975.993 194.137L967.296 187.618L967.257 187.579L967.218 187.559C966.321 186.878 965.522 186.041 964.878 185.088C964.215 184.154 963.728 183.103 963.416 182.013C963.104 180.904 962.968 179.775 963.006 178.627C963.065 177.479 963.299 176.35 963.708 175.28L963.767 175.143C964.456 175.286 965.138 175.462 965.814 175.669C966.49 175.89 967.153 176.149 967.803 176.448C968.44 176.733 969.064 177.057 969.675 177.421C970.286 177.784 970.877 178.173 971.449 178.588L983.987 188.085Z" fill="#FC6D26"/>
</g>
<g filter="url(#filter9_d_3_17260)">
<rect x="636" y="137.5" width="64" height="64" rx="32" fill="white" shape-rendering="crispEdges"/>
<rect x="636.5" y="138" width="63" height="63" rx="31.5" stroke="#DAE0E6" shape-rendering="crispEdges"/>
<path d="M668 154.5C659.72 154.5 653 161.22 653 169.5C653 177.78 659.72 184.5 668 184.5C676.28 184.5 683 177.78 683 169.5C683 161.22 676.28 154.5 668 154.5ZM668 180.54C661.88 180.54 656.96 175.62 656.96 169.5C656.96 163.38 661.88 158.46 668 158.46C674.12 158.46 679.04 163.38 679.04 169.5C679.04 175.62 674.12 180.54 668 180.54Z" fill="#F12E45"/>
<path d="M671.72 168.9C673.443 168.9 674.84 167.503 674.84 165.78C674.84 164.057 673.443 162.66 671.72 162.66C669.997 162.66 668.6 164.057 668.6 165.78C668.6 167.503 669.997 168.9 671.72 168.9Z" fill="#F12E45"/>
<path d="M671.72 176.34C673.443 176.34 674.84 174.943 674.84 173.22C674.84 171.497 673.443 170.1 671.72 170.1C669.997 170.1 668.6 171.497 668.6 173.22C668.6 174.943 669.997 176.34 671.72 176.34Z" fill="#F12E45"/>
<path d="M664.28 176.34C666.003 176.34 667.4 174.943 667.4 173.22C667.4 171.497 666.003 170.1 664.28 170.1C662.557 170.1 661.16 171.497 661.16 173.22C661.16 174.943 662.557 176.34 664.28 176.34Z" fill="#F12E45"/>
<path d="M664.28 168.9C666.003 168.9 667.4 167.503 667.4 165.78C667.4 164.057 666.003 162.66 664.28 162.66C662.557 162.66 661.16 164.057 661.16 165.78C661.16 167.503 662.557 168.9 664.28 168.9Z" fill="#F12E45"/>
</g>
<g filter="url(#filter10_d_3_17260)">
<rect x="1052" y="218.5" width="64" height="64" rx="32" fill="white" shape-rendering="crispEdges"/>
<rect x="1052.5" y="219" width="63" height="63" rx="31.5" stroke="#DAE0E6" shape-rendering="crispEdges"/>
<path d="M1094.76 235.5H1073.24C1071.74 235.5 1070.54 236.7 1070.54 238.2V262.8C1070.54 264.3 1071.74 265.5 1073.24 265.5H1094.76C1096.26 265.5 1097.46 264.3 1097.46 262.8V238.2C1097.46 236.7 1096.26 235.5 1094.76 235.5ZM1095.96 262.8C1095.96 263.475 1095.44 264 1094.76 264H1073.24C1072.56 264 1072.04 263.475 1072.04 262.8V238.2C1072.04 237.525 1072.56 237 1073.24 237H1094.76C1095.44 237 1095.96 237.525 1095.96 238.2V262.8ZM1077.29 261L1080.66 258L1077.29 255V261ZM1089.44 248.85C1088.84 248.25 1087.71 247.5 1085.84 247.5C1083.81 247.5 1081.71 248.025 1080.21 248.55V240H1077.21V252.975L1079.31 252C1079.31 252 1082.76 250.425 1085.76 250.425C1087.26 250.425 1087.64 251.25 1087.64 252V261H1090.64V252C1090.71 251.775 1090.71 250.125 1089.44 248.85ZM1085.46 244.875H1088.46C1089.81 243.3 1090.49 241.725 1090.71 240H1087.71C1087.41 241.725 1086.66 243.3 1085.46 244.875Z" fill="#430098"/>
</g>
<g filter="url(#filter11_d_3_17260)">
<rect x="1192" y="38.5" width="64" height="64" rx="32" fill="white" shape-rendering="crispEdges"/>
<rect x="1192.5" y="39" width="63" height="63" rx="31.5" stroke="#DAE0E6" shape-rendering="crispEdges"/>
<path d="M1229.56 58.7143L1211.01 69.4286V63L1224 55.5L1229.56 58.7143Z" fill="#221F20"/>
<path d="M1236.99 63V66.7088L1214.22 79.8544L1211.01 78V74.511L1233.96 61.2555L1236.99 63Z" fill="#221F20"/>
<path d="M1218.62 82.3956L1236.99 71.7912V78L1224 85.5L1218.62 82.3956Z" fill="#221F20"/>
</g>
<g filter="url(#filter12_d_3_17260)">
<rect x="1304" y="260.5" width="64" height="64" rx="32" fill="white" shape-rendering="crispEdges"/>
<rect x="1304.5" y="261" width="63" height="63" rx="31.5" stroke="#DAE0E6" shape-rendering="crispEdges"/>
<path fill-rule="evenodd" clip-rule="evenodd" d="M1326.37 283.719C1328.77 281.121 1331.89 279.491 1335.96 279.491C1342.48 279.491 1346.15 283.827 1348.17 288.192C1349.95 292.029 1350.6 296.157 1350.88 297.988C1350.92 298.227 1350.95 298.427 1350.98 298.582C1351.02 298.818 1351 299.06 1350.92 299.284C1350.18 301.299 1348.33 302.77 1346.19 303.75C1344.02 304.748 1341.35 305.342 1338.62 305.479C1333.23 305.748 1327.02 304.253 1323.83 299.81C1323.28 299.046 1323.57 298.751 1323.68 298.492L1323.68 298.484C1323.68 298.48 1323.68 298.474 1323.69 298.466C1323.69 298.451 1323.7 298.429 1323.71 298.4C1323.74 298.343 1323.77 298.261 1323.82 298.158C1323.91 297.952 1324.04 297.66 1324.2 297.311C1324.52 296.616 1324.98 295.682 1325.52 294.748C1326.04 293.827 1326.68 292.845 1327.36 292.091C1327.7 291.714 1328.09 291.347 1328.53 291.078C1328.96 290.81 1329.55 290.578 1330.22 290.647C1331.9 290.822 1333 292.122 1333.62 292.868L1333.64 292.884C1333.69 292.944 1333.74 293.001 1333.78 293.055C1334.07 293.398 1334.27 293.636 1334.46 293.813C1334.5 293.773 1334.54 293.727 1334.59 293.674C1334.9 293.328 1335.27 292.814 1335.66 292.19C1336.44 290.951 1337.21 289.452 1337.67 288.452C1337.99 287.77 1338.8 287.476 1339.48 287.795C1340.16 288.114 1340.46 288.925 1340.14 289.607C1339.64 290.672 1338.82 292.277 1337.96 293.642C1337.54 294.319 1337.07 294.981 1336.62 295.493C1336.39 295.749 1336.13 296.003 1335.84 296.206C1335.58 296.394 1335.17 296.632 1334.65 296.659C1333.75 296.705 1333.08 296.234 1332.66 295.861C1332.31 295.54 1331.96 295.125 1331.68 294.789C1331.64 294.737 1331.6 294.687 1331.56 294.639C1330.87 293.818 1330.44 293.445 1330.01 293.368C1329.99 293.376 1329.97 293.386 1329.95 293.402C1329.81 293.485 1329.62 293.647 1329.37 293.917C1328.89 294.457 1328.37 295.242 1327.88 296.101C1327.4 296.948 1326.97 297.809 1326.67 298.463C1326.61 298.587 1326.56 298.704 1326.51 298.811C1329.05 301.726 1333.78 302.992 1338.48 302.757C1340.94 302.634 1343.26 302.1 1345.06 301.274C1346.72 300.511 1347.77 299.581 1348.23 298.647C1348.22 298.564 1348.21 298.477 1348.19 298.386C1347.89 296.513 1347.31 292.795 1345.7 289.34C1343.89 285.437 1340.97 282.216 1335.96 282.216C1332.72 282.216 1330.31 283.473 1328.37 285.569C1326.39 287.714 1324.89 290.76 1323.64 294.314C1323.39 295.024 1322.62 295.396 1321.91 295.146C1321.2 294.895 1320.83 294.117 1321.08 293.407C1322.37 289.727 1324.02 286.269 1326.37 283.719Z" fill="#737885"/>
</g>
<g filter="url(#filter13_d_3_17260)">
<rect x="348" y="38.5" width="64" height="64" rx="32" fill="white" shape-rendering="crispEdges"/>
<rect x="348.5" y="39" width="63" height="63" rx="31.5" stroke="#DAE0E6" shape-rendering="crispEdges"/>
<path d="M373.904 69.3433C373.815 69.2266 373.697 69.1349 373.562 69.077C373.427 69.0192 373.279 68.9972 373.133 69.0132C372.987 69.0291 372.848 69.0825 372.729 69.1682C372.61 69.2538 372.514 69.3688 372.453 69.502L365.093 84.2205C365.026 84.3545 364.994 84.5034 365.001 84.6532C365.007 84.8029 365.052 84.9486 365.131 85.0762C365.209 85.2038 365.319 85.3093 365.45 85.3825C365.581 85.4558 365.728 85.4944 365.878 85.4947H376.125C376.291 85.4979 376.455 85.4523 376.595 85.3636C376.735 85.275 376.846 85.1471 376.914 84.9959C379.123 80.4615 377.785 73.4922 373.904 69.3433Z" fill="url(#paint0_linear_3_17260)"/>
<path d="M379.304 55.976C377.47 58.7983 376.4 62.0492 376.202 65.4094C376.003 68.7697 376.681 72.1239 378.17 75.1428L383.136 84.9959C383.208 85.1423 383.32 85.2657 383.458 85.3522C383.597 85.4386 383.757 85.4849 383.92 85.4856H394.168C394.311 85.4738 394.45 85.4278 394.572 85.3517C394.695 85.2755 394.797 85.1712 394.871 85.0476C394.945 84.9239 394.989 84.7844 394.998 84.6405C395.007 84.4967 394.982 84.3527 394.925 84.2205L380.8 55.976C380.733 55.835 380.627 55.716 380.494 55.6327C380.362 55.5493 380.209 55.5051 380.052 55.5051C379.896 55.5051 379.743 55.5493 379.61 55.6327C379.478 55.716 379.372 55.835 379.304 55.976Z" fill="#2684FF"/>
</g>
<g filter="url(#filter14_d_3_17260)">
<rect x="9" y="88.5" width="64" height="64" rx="32" fill="white" shape-rendering="crispEdges"/>
<rect x="9.5" y="89" width="63" height="63" rx="31.5" stroke="#DAE0E6" shape-rendering="crispEdges"/>
<path d="M45.5355 117.522C47.3142 119.307 48.7691 122.228 47.9365 123.964C45.7102 128.606 29.0976 136.748 27.6868 135.338C26.276 133.93 34.4367 117.341 39.0882 115.117C40.8272 114.286 43.7539 115.738 45.5426 117.514C45.5426 117.514 45.5397 117.518 45.5355 117.522Z" fill="#FF8200"/>
<path d="M54.3369 115.562C54.0485 114.495 53.3111 113.415 52.2101 113.288C50.1912 113.054 47.0102 116.616 47.2375 117.461C47.4648 118.307 51.96 119.797 53.6379 118.593C54.5031 117.972 54.6211 116.63 54.3369 115.562ZM48.0899 105.693C49.5888 106.099 51.1047 107.13 51.2838 108.67C51.6134 111.495 46.6095 115.948 45.4218 115.631C44.2341 115.313 42.1413 109.022 43.8334 106.672C44.7058 105.46 46.5882 105.296 48.0899 105.693Z" fill="#43B02A"/>
</g>
<g filter="url(#filter15_d_3_17260)">
<rect x="49" y="289.5" width="64" height="64" rx="32" fill="white" shape-rendering="crispEdges"/>
<rect x="49.5" y="290" width="63" height="63" rx="31.5" stroke="#DAE0E6" shape-rendering="crispEdges"/>
<path fill-rule="evenodd" clip-rule="evenodd" d="M88.156 320.762H88.8192C88.9139 320.477 88.9139 320.098 88.8192 319.625C88.6297 318.961 88.4402 318.488 88.0612 318.582C87.6822 318.677 87.5875 319.151 87.777 319.909C87.8717 320.193 88.0612 320.572 88.156 320.762Z" fill="#101828"/>
<path fill-rule="evenodd" clip-rule="evenodd" d="M84.6504 321.33C84.9346 321.425 85.1241 321.52 85.2188 321.425C85.2188 321.425 85.2188 321.33 85.2188 321.141C85.0293 320.856 84.7451 320.667 84.4609 320.477C83.7976 320.193 83.0397 320.288 82.4712 320.762C82.2817 320.951 82.0922 321.141 82.0922 321.235C82.0922 321.235 82.0922 321.33 82.187 321.33C82.3765 321.33 82.9449 321.046 83.6082 321.046C83.9871 321.046 84.3661 321.141 84.6504 321.33Z" fill="#101828"/>
<path fill-rule="evenodd" clip-rule="evenodd" d="M84.0819 321.614C83.7029 321.709 83.5134 321.804 83.3239 321.899C83.2292 321.993 83.1344 322.088 83.1344 322.183V322.278H83.2292C83.3239 322.278 83.5134 322.183 83.5134 322.183C84.0819 321.993 84.3661 321.993 84.7451 322.088H85.0293V321.993C84.9346 321.804 84.5556 321.614 84.0819 321.614Z" fill="#101828"/>
<path fill-rule="evenodd" clip-rule="evenodd" d="M87.019 322.941C87.3032 323.036 87.5875 323.036 87.6822 322.846C87.777 322.657 87.6822 322.372 87.398 322.278C87.1137 322.183 86.8295 322.183 86.7348 322.372C86.64 322.467 86.7348 322.751 87.019 322.941Z" fill="#101828"/>
<path fill-rule="evenodd" clip-rule="evenodd" d="M88.7244 321.425C88.5349 321.425 88.3454 321.614 88.3454 321.993C88.3454 322.278 88.5349 322.562 88.7244 322.562C88.9139 322.562 89.1034 322.372 89.1034 321.993C89.1034 321.709 88.9139 321.425 88.7244 321.425Z" fill="#101828"/>
<path fill-rule="evenodd" clip-rule="evenodd" d="M74.3231 326.731C74.2283 326.636 74.2283 326.731 74.1336 326.731C74.0388 326.731 74.0388 326.731 73.9441 326.731C73.7546 326.731 73.6598 326.636 73.5651 326.541C73.4703 326.352 73.4703 326.162 73.5651 325.878C73.5651 325.878 73.5651 325.783 73.6598 325.783C73.8493 325.404 74.1336 324.741 73.7546 324.172C73.4703 323.699 73.0914 323.415 72.6176 323.32C72.1439 323.225 71.6702 323.415 71.3859 323.793C70.9122 324.267 70.8175 325.025 70.9122 325.309C70.9122 325.404 71.007 325.404 71.007 325.404C71.1017 325.404 71.1964 325.309 71.2912 325.12C71.2912 325.12 71.2912 325.12 71.2912 325.025C71.2912 324.93 71.3859 324.741 71.4807 324.551C71.5754 324.362 71.7649 324.267 72.0492 324.172C72.2387 324.078 72.5229 324.172 72.7124 324.267C72.9966 324.457 73.1861 324.93 72.9966 325.309C72.9019 325.499 72.8071 325.878 72.8071 326.162C72.9019 326.825 73.2809 327.015 73.5651 327.11C73.9441 327.11 74.1336 326.92 74.2283 326.825C74.4178 326.731 74.4178 326.731 74.3231 326.731Z" fill="#101828"/>
<path d="M94.0302 325.499C94.0302 325.499 93.9354 325.12 93.8407 324.741C93.746 324.362 93.6512 324.078 93.6512 324.078C94.1249 323.415 94.1249 322.751 94.0302 322.372C93.9354 321.899 93.746 321.52 93.367 321.141C92.988 320.762 92.23 320.383 91.1878 320.098C91.0931 320.098 90.7141 319.909 90.6193 319.909C90.6193 319.909 90.6193 318.582 90.5246 318.014C90.5246 317.635 90.4299 316.972 90.2404 316.403C90.0509 315.551 89.5771 314.887 89.1034 314.414C90.5246 312.992 91.3773 311.382 91.3773 310.055C91.3773 307.497 88.156 306.645 84.2714 308.255L83.4187 308.634L81.9027 307.118C77.4497 303.234 63.3325 318.772 67.8803 322.657L68.8278 323.509C68.5436 324.172 68.4488 324.93 68.5436 325.783C68.6383 326.825 69.2068 327.868 70.0595 328.626C70.9122 329.384 71.9544 329.857 72.9966 329.857C74.702 333.931 78.7761 336.395 83.4187 336.489C88.4402 336.679 92.7038 334.31 94.4092 330.047C94.5039 329.762 94.9777 328.436 94.9777 327.204C95.1671 326.067 94.5039 325.499 94.0302 325.499ZM73.4703 328.72C73.2809 328.72 73.1861 328.72 72.9966 328.72C71.4807 328.72 69.87 327.299 69.6805 325.688C69.491 323.888 70.4385 322.562 72.0492 322.183C72.2387 322.183 72.5229 322.088 72.7124 322.088C73.6598 322.183 74.9863 322.846 75.2705 324.836C75.5548 326.636 75.1758 328.436 73.4703 328.72ZM71.8597 321.141C70.8175 321.33 69.9648 321.899 69.3963 322.657C69.112 322.372 68.4488 321.899 68.3541 321.614C67.5014 320.004 69.3015 316.782 70.5332 314.982C73.6598 310.529 78.5866 307.118 80.8605 307.781C81.2395 307.876 82.4712 309.297 82.4712 309.297C82.4712 309.297 80.1973 310.529 78.1129 312.329C75.2705 314.508 73.0914 317.73 71.8597 321.141ZM87.777 328.057C87.777 327.962 87.777 327.868 87.777 327.868C87.777 327.868 85.4083 328.247 83.1344 327.394C83.4187 326.636 83.9871 326.92 85.0293 326.92C86.8295 327.015 88.3454 326.731 89.5771 326.446C90.6193 326.162 91.9458 325.594 92.988 324.741C93.367 325.499 93.4617 326.352 93.4617 326.352C93.4617 326.352 93.746 326.257 93.9354 326.446C94.1249 326.541 94.3144 326.825 94.2197 327.583C94.0302 328.91 93.4617 329.952 92.5143 330.994C91.9458 331.657 91.2826 332.131 90.4298 332.51C90.0509 332.7 89.5771 332.889 89.1034 333.079C85.5031 334.216 81.9027 332.984 80.7658 330.236C80.671 330.047 80.5763 329.857 80.5763 329.573C80.1026 327.773 80.4815 325.594 81.808 324.267C81.9027 324.172 81.9975 324.078 81.9975 323.983C81.9975 323.888 81.9027 323.793 81.9027 323.699C81.429 323.036 79.8183 321.899 80.1973 319.625C80.3868 318.014 81.808 316.877 83.1344 316.972H83.4187C83.9871 316.972 84.4609 317.067 84.9346 317.067C85.6926 317.067 86.4505 316.972 87.2085 316.309C87.4927 316.119 87.6822 315.835 88.0612 315.835H88.4402C88.6297 315.835 88.8192 315.93 89.0087 316.024C89.6719 316.498 89.7666 317.54 89.7666 318.298C89.7666 318.772 89.8614 319.814 89.8614 320.098C89.8614 320.762 90.0509 320.951 90.4298 321.046C90.6193 321.141 90.8088 321.141 91.0931 321.235C91.9458 321.52 92.5143 321.709 92.7985 322.088C92.988 322.278 93.0827 322.467 93.0827 322.751C93.1775 323.509 92.5143 324.457 90.7141 325.309C88.7244 326.257 86.261 326.446 84.6504 326.257C84.5556 326.257 84.0819 326.162 84.0819 326.162C82.7554 325.973 81.9975 327.678 82.7554 328.91C83.2292 329.668 84.6504 330.141 86.0715 330.141C89.2929 330.141 91.7563 328.72 92.7038 327.583C92.7038 327.583 92.7038 327.583 92.7985 327.489C92.7985 327.394 92.7985 327.394 92.7038 327.394C91.9458 327.868 88.6297 329.952 85.0293 329.384C85.0293 329.384 84.5556 329.289 84.1766 329.194C83.8924 329.099 83.2292 328.72 83.1344 328.057C85.8821 328.91 87.777 328.057 87.777 328.057ZM77.6392 314.982C78.7761 313.656 80.1026 312.613 81.3343 311.95C81.3343 311.95 81.429 311.95 81.429 312.045C81.3343 312.235 81.1448 312.613 81.05 312.898C81.05 312.898 81.05 312.992 81.1448 312.992C81.9027 312.519 83.2292 311.95 84.3661 311.856C84.4609 311.856 84.4609 311.95 84.3661 311.95C84.1766 312.045 83.9871 312.235 83.8924 312.424V312.519C84.7451 312.519 85.8821 312.803 86.64 313.277C86.7348 313.277 86.64 313.371 86.64 313.371C85.5031 313.087 83.6082 312.898 81.7132 313.371C79.9131 313.75 78.5866 314.414 77.6392 314.982C77.6392 315.172 77.5444 315.077 77.6392 314.982Z" fill="#101828"/>
</g>
<g filter="url(#filter16_d_3_17260)">
<rect x="1176" y="202.5" width="88" height="88" rx="44" fill="white" shape-rendering="crispEdges"/>
<rect x="1176.5" y="203" width="87" height="87" rx="43.5" stroke="#DAE0E6" shape-rendering="crispEdges"/>
<path d="M1220.03 235.351L1209.51 242.074L1220.03 248.797L1209.51 255.52L1199 248.741L1209.51 242.018L1199 235.351L1209.51 228.628L1220.03 235.351ZM1209.46 257.649L1219.97 250.926L1230.49 257.649L1219.97 264.372L1209.46 257.649ZM1220.03 248.741L1230.54 242.018L1220.03 235.351L1230.49 228.628L1241 235.351L1230.49 242.074L1241 248.797L1230.49 255.52L1220.03 248.741Z" fill="#0061FF"/>
</g>
<g filter="url(#filter17_d_3_17260)">
<rect x="1404" y="213.5" width="88" height="88" rx="44" fill="white" shape-rendering="crispEdges"/>
<rect x="1404.5" y="214" width="87" height="87" rx="43.5" stroke="#DAE0E6" shape-rendering="crispEdges"/>
<path fill-rule="evenodd" clip-rule="evenodd" d="M1430.46 268.767L1436.94 263.819C1440.37 268.298 1444.03 270.362 1448.09 270.362C1452.14 270.362 1455.69 268.322 1458.98 263.878L1465.54 268.708C1460.8 275.115 1454.91 278.5 1448.09 278.5C1441.3 278.5 1435.35 275.139 1430.46 268.767Z" fill="url(#paint1_linear_3_17260)"/>
<path fill-rule="evenodd" clip-rule="evenodd" d="M1448.07 247.262L1436.55 257.171L1431.23 251.006L1448.1 236.5L1464.84 251.017L1459.49 257.16L1448.07 247.262Z" fill="url(#paint2_linear_3_17260)"/>
</g>
<g filter="url(#filter18_d_3_17260)">
<rect x="1420" y="27.5" width="88" height="88" rx="44" fill="white" shape-rendering="crispEdges"/>
<rect x="1420.5" y="28" width="87" height="87" rx="43.5" stroke="#DAE0E6" shape-rendering="crispEdges"/>
<path fill-rule="evenodd" clip-rule="evenodd" d="M1475.87 72.6395C1470.82 72.6395 1466.73 76.7219 1466.73 81.758C1466.73 86.7938 1470.82 90.8763 1475.87 90.8763C1480.91 90.8763 1485 86.7938 1485 81.758C1485 76.7219 1480.91 72.6395 1475.87 72.6395ZM1452.13 72.6403C1447.09 72.6403 1443 76.7219 1443 81.758C1443 86.7938 1447.09 90.8763 1452.13 90.8763C1457.18 90.8763 1461.27 86.7938 1461.27 81.758C1461.27 76.7219 1457.18 72.6403 1452.13 72.6403ZM1473.13 61.2415C1473.13 66.2777 1469.04 70.3605 1464 70.3605C1458.96 70.3605 1454.87 66.2777 1454.87 61.2415C1454.87 56.2063 1458.96 52.1235 1464 52.1235C1469.04 52.1235 1473.13 56.2063 1473.13 61.2415Z" fill="#F06A6A"/>
</g>
<g filter="url(#filter19_d_3_17260)">
<rect x="552" y="234.5" width="120" height="120" rx="60" fill="white" shape-rendering="crispEdges"/>
<rect x="552.5" y="235" width="119" height="119" rx="59.5" stroke="#DAE0E6" shape-rendering="crispEdges"/>
<path fill-rule="evenodd" clip-rule="evenodd" d="M596.781 271.883L611.998 270.289L627.216 271.883L638.998 287.555L611.999 318.711L585 287.555L596.781 271.883Z" fill="#FDB300"/>
<path fill-rule="evenodd" clip-rule="evenodd" d="M595.936 287.744L611.999 318.711L585 287.744H595.936Z" fill="#EA6C00"/>
<path fill-rule="evenodd" clip-rule="evenodd" d="M628.065 287.744L611.999 318.711L639 287.744H628.065Z" fill="#EA6C00"/>
<path fill-rule="evenodd" clip-rule="evenodd" d="M595.691 287.744H627.753L611.722 318.71L595.691 287.744Z" fill="#FDAD00"/>
<path fill-rule="evenodd" clip-rule="evenodd" d="M611.441 270.289L596.52 271.9L595.691 287.744L611.441 270.289Z" fill="#FDD231"/>
<path fill-rule="evenodd" clip-rule="evenodd" d="M611.998 270.289L626.916 271.9L627.753 287.744L611.998 270.289Z" fill="#FDD231"/>
<path fill-rule="evenodd" clip-rule="evenodd" d="M639 287.744L627.187 271.976L628.035 287.741L639 287.744Z" fill="#FDAD00"/>
<path fill-rule="evenodd" clip-rule="evenodd" d="M585 287.744L596.812 271.976L595.964 287.741L585 287.744Z" fill="#FDAD00"/>
<path fill-rule="evenodd" clip-rule="evenodd" d="M611.722 270.289L595.691 287.744H627.753L611.722 270.289Z" fill="#FEEEB7"/>
</g>
<g filter="url(#filter20_d_3_17260)">
<rect x="791" y="27.5" width="120" height="120" rx="60" fill="white" shape-rendering="crispEdges"/>
<rect x="791.5" y="28" width="119" height="119" rx="59.5" stroke="#DAE0E6" shape-rendering="crispEdges"/>
<path d="M848.113 65.2767L827.98 73.6854C826.861 74.1531 826.872 75.7585 827.999 76.2093L848.216 84.3015C849.992 85.0126 851.97 85.0126 853.746 84.3015L873.963 76.2089C875.09 75.7585 875.102 74.1534 873.982 73.6857L853.849 65.2764C852.013 64.5092 849.95 64.5095 848.113 65.2767Z" fill="#FCB400"/>
<path d="M852.775 88.7201V108.936C852.775 109.897 853.735 110.556 854.621 110.202L877.148 101.375C877.4 101.275 877.615 101.101 877.767 100.875C877.919 100.649 878 100.383 878 100.11V79.8943C878 78.9327 877.039 78.2743 876.154 78.6286L853.626 87.4548C853.375 87.5554 853.16 87.7298 853.008 87.9555C852.856 88.1811 852.775 88.4473 852.775 88.7201Z" fill="#18BFFF"/>
<path d="M847.514 89.7625L840.828 93.0209L840.15 93.3521L826.036 100.178C825.142 100.613 824 99.9554 824 98.9522V79.9782C824 79.6153 824.184 79.302 824.432 79.0663C824.533 78.9644 824.648 78.8772 824.773 78.8075C825.11 78.6032 825.591 78.5487 826 78.712L847.402 87.2713C848.49 87.707 848.575 89.2453 847.514 89.7625Z" fill="#F82B60"/>
<path d="M847.514 89.7625L840.828 93.0209L824.432 79.0663C824.533 78.9644 824.648 78.8772 824.773 78.8075C825.11 78.6032 825.591 78.5487 826 78.712L847.402 87.2713C848.49 87.707 848.575 89.2453 847.514 89.7625Z" fill="black" fill-opacity="0.25"/>
</g>
<g filter="url(#filter21_d_3_17260)">
<rect x="717" y="174.5" width="120" height="120" rx="60" fill="white" shape-rendering="crispEdges"/>
<rect x="717.5" y="175" width="119" height="119" rx="59.5" stroke="#DAE0E6" shape-rendering="crispEdges"/>
<path fill-rule="evenodd" clip-rule="evenodd" d="M797.589 207.517H756.419C752.877 207.517 750.005 210.386 750 213.928V255.038C749.993 256.744 750.666 258.384 751.871 259.593C753.076 260.803 754.712 261.483 756.419 261.483H797.589C799.295 261.48 800.929 260.799 802.132 259.59C803.335 258.381 804.007 256.743 804 255.038V213.928C803.995 210.389 801.128 207.522 797.589 207.517ZM773.289 246.386C773.286 246.957 773.057 247.503 772.651 247.904C772.245 248.305 771.696 248.528 771.126 248.523H762.129C760.952 248.519 760.001 247.563 760.001 246.386V219.611C760.001 218.435 760.952 217.479 762.129 217.475H771.126C772.304 217.479 773.258 218.433 773.263 219.611L773.289 246.386ZM794.051 234.093C794.051 234.665 793.823 235.212 793.416 235.614C793.01 236.015 792.46 236.237 791.888 236.23H782.891C781.713 236.225 780.759 235.271 780.755 234.093V219.611C780.759 218.433 781.713 217.479 782.891 217.475H791.888C793.065 217.479 794.017 218.435 794.017 219.611L794.051 234.093Z" fill="url(#paint3_linear_3_17260)"/>
</g>
<g filter="url(#filter22_d_3_17260)">
<rect x="1276" y="95.5" width="120" height="120" rx="60" fill="white" shape-rendering="crispEdges"/>
<rect x="1276.5" y="96" width="119" height="119" rx="59.5" stroke="#DAE0E6" shape-rendering="crispEdges"/>
<path d="M1346.82 128.5L1344.33 152.299L1340.07 132.234L1326.65 135.065L1330.86 155.131L1311.55 159.234L1314.99 175.237L1348.99 182.5L1356.77 165.061L1360.45 129.936L1346.82 128.5ZM1336.06 163.05C1335.37 163.707 1334.47 163.625 1333.44 163.296C1332.46 162.968 1332.05 161.819 1332.38 160.342C1332.67 159.275 1333.93 159.111 1334.63 159.111C1334.87 159.111 1335.12 159.152 1335.37 159.275C1335.82 159.48 1336.59 159.932 1336.76 160.588C1337 161.573 1336.76 162.394 1336.06 163.05ZM1345.92 164.117C1345.39 165.02 1344.08 165.143 1342.73 164.486C1341.83 164.035 1341.83 162.968 1341.95 162.271C1341.99 161.901 1342.16 161.532 1342.4 161.245C1342.73 160.834 1343.26 160.301 1343.84 160.301C1344.86 160.26 1345.68 160.711 1346.17 161.532C1346.66 162.353 1346.41 163.255 1345.92 164.117Z" fill="#00CCBC"/>
</g>
<g filter="url(#filter23_d_3_17260)">
<rect x="1037" y="38.5" width="120" height="120" rx="60" fill="white" shape-rendering="crispEdges"/>
<rect x="1037.5" y="39" width="119" height="119" rx="59.5" stroke="#DAE0E6" shape-rendering="crispEdges"/>
<path d="M1085.84 77.3204H1113.98V119.195H1085.84V77.3204Z" fill="white"/>
<path d="M1092.8 71.5C1080.19 71.5 1070 81.6856 1070 94.2964V125.5H1101.2C1113.81 125.5 1124 115.314 1124 102.704V71.5H1092.8ZM1111.23 81.0389C1111.23 85.2425 1107.83 88.476 1103.79 88.476H1095.71V94.9431H1106.54V102.38H1095.87V117.901H1086.98V79.0988H1095.71V86.0509C1096.03 82.1707 1099.26 79.0988 1103.14 79.0988H1111.23V81.0389Z" fill="#0075DD"/>
</g>
<defs>
<filter id="filter0_d_3_17260" x="186" y="247.5" width="124" height="124" filterUnits="userSpaceOnUse" color-interpolation-filters="sRGB">
<feFlood flood-opacity="0" result="BackgroundImageFix"/>
<feColorMatrix in="SourceAlpha" type="matrix" values="0 0 0 0 0 0 0 0 0 0 0 0 0 0 0 0 0 0 127 0" result="hardAlpha"/>
<feOffset dy="1"/>
<feGaussianBlur stdDeviation="1"/>
<feComposite in2="hardAlpha" operator="out"/>
<feColorMatrix type="matrix" values="0 0 0 0 0.0627451 0 0 0 0 0.0941176 0 0 0 0 0.156863 0 0 0 0.04 0"/>
<feBlend mode="normal" in2="BackgroundImageFix" result="effect1_dropShadow_3_17260"/>
<feBlend mode="normal" in="SourceGraphic" in2="effect1_dropShadow_3_17260" result="shape"/>
</filter>
<filter id="filter1_d_3_17260" x="438" y="86.5" width="124" height="124" filterUnits="userSpaceOnUse" color-interpolation-filters="sRGB">
<feFlood flood-opacity="0" result="BackgroundImageFix"/>
<feColorMatrix in="SourceAlpha" type="matrix" values="0 0 0 0 0 0 0 0 0 0 0 0 0 0 0 0 0 0 127 0" result="hardAlpha"/>
<feOffset dy="1"/>
<feGaussianBlur stdDeviation="1"/>
<feComposite in2="hardAlpha" operator="out"/>
<feColorMatrix type="matrix" values="0 0 0 0 0.0627451 0 0 0 0 0.0941176 0 0 0 0 0.156863 0 0 0 0.04 0"/>
<feBlend mode="normal" in2="BackgroundImageFix" result="effect1_dropShadow_3_17260"/>
<feBlend mode="normal" in="SourceGraphic" in2="effect1_dropShadow_3_17260" result="shape"/>
</filter>
<filter id="filter2_d_3_17260" x="134" y="16.5" width="124" height="124" filterUnits="userSpaceOnUse" color-interpolation-filters="sRGB">
<feFlood flood-opacity="0" result="BackgroundImageFix"/>
<feColorMatrix in="SourceAlpha" type="matrix" values="0 0 0 0 0 0 0 0 0 0 0 0 0 0 0 0 0 0 127 0" result="hardAlpha"/>
<feOffset dy="1"/>
<feGaussianBlur stdDeviation="1"/>
<feComposite in2="hardAlpha" operator="out"/>
<feColorMatrix type="matrix" values="0 0 0 0 0.0627451 0 0 0 0 0.0941176 0 0 0 0 0.156863 0 0 0 0.04 0"/>
<feBlend mode="normal" in2="BackgroundImageFix" result="effect1_dropShadow_3_17260"/>
<feBlend mode="normal" in="SourceGraphic" in2="effect1_dropShadow_3_17260" result="shape"/>
</filter>
<filter id="filter3_d_3_17260" x="263" y="122.5" width="92" height="92" filterUnits="userSpaceOnUse" color-interpolation-filters="sRGB">
<feFlood flood-opacity="0" result="BackgroundImageFix"/>
<feColorMatrix in="SourceAlpha" type="matrix" values="0 0 0 0 0 0 0 0 0 0 0 0 0 0 0 0 0 0 127 0" result="hardAlpha"/>
<feOffset dy="1"/>
<feGaussianBlur stdDeviation="1"/>
<feComposite in2="hardAlpha" operator="out"/>
<feColorMatrix type="matrix" values="0 0 0 0 0.0627451 0 0 0 0 0.0941176 0 0 0 0 0.156863 0 0 0 0.04 0"/>
<feBlend mode="normal" in2="BackgroundImageFix" result="effect1_dropShadow_3_17260"/>
<feBlend mode="normal" in="SourceGraphic" in2="effect1_dropShadow_3_17260" result="shape"/>
</filter>
<filter id="filter4_d_3_17260" x="69" y="159.5" width="92" height="92" filterUnits="userSpaceOnUse" color-interpolation-filters="sRGB">
<feFlood flood-opacity="0" result="BackgroundImageFix"/>
<feColorMatrix in="SourceAlpha" type="matrix" values="0 0 0 0 0 0 0 0 0 0 0 0 0 0 0 0 0 0 127 0" result="hardAlpha"/>
<feOffset dy="1"/>
<feGaussianBlur stdDeviation="1"/>
<feComposite in2="hardAlpha" operator="out"/>
<feColorMatrix type="matrix" values="0 0 0 0 0.0627451 0 0 0 0 0.0941176 0 0 0 0 0.156863 0 0 0 0.04 0"/>
<feBlend mode="normal" in2="BackgroundImageFix" result="effect1_dropShadow_3_17260"/>
<feBlend mode="normal" in="SourceGraphic" in2="effect1_dropShadow_3_17260" result="shape"/>
</filter>
<filter id="filter5_d_3_17260" x="362" y="220.5" width="92" height="92" filterUnits="userSpaceOnUse" color-interpolation-filters="sRGB">
<feFlood flood-opacity="0" result="BackgroundImageFix"/>
<feColorMatrix in="SourceAlpha" type="matrix" values="0 0 0 0 0 0 0 0 0 0 0 0 0 0 0 0 0 0 127 0" result="hardAlpha"/>
<feOffset dy="1"/>
<feGaussianBlur stdDeviation="1"/>
<feComposite in2="hardAlpha" operator="out"/>
<feColorMatrix type="matrix" values="0 0 0 0 0.0627451 0 0 0 0 0.0941176 0 0 0 0 0.156863 0 0 0 0.04 0"/>
<feBlend mode="normal" in2="BackgroundImageFix" result="effect1_dropShadow_3_17260"/>
<feBlend mode="normal" in="SourceGraphic" in2="effect1_dropShadow_3_17260" result="shape"/>
</filter>
<filter id="filter6_d_3_17260" x="582" y="14.5" width="92" height="92" filterUnits="userSpaceOnUse" color-interpolation-filters="sRGB">
<feFlood flood-opacity="0" result="BackgroundImageFix"/>
<feColorMatrix in="SourceAlpha" type="matrix" values="0 0 0 0 0 0 0 0 0 0 0 0 0 0 0 0 0 0 127 0" result="hardAlpha"/>
<feOffset dy="1"/>
<feGaussianBlur stdDeviation="1"/>
<feComposite in2="hardAlpha" operator="out"/>
<feColorMatrix type="matrix" values="0 0 0 0 0.0627451 0 0 0 0 0.0941176 0 0 0 0 0.156863 0 0 0 0.04 0"/>
<feBlend mode="normal" in2="BackgroundImageFix" result="effect1_dropShadow_3_17260"/>
<feBlend mode="normal" in="SourceGraphic" in2="effect1_dropShadow_3_17260" result="shape"/>
</filter>
<filter id="filter7_d_3_17260" x="876" y="248.5" width="92" height="92" filterUnits="userSpaceOnUse" color-interpolation-filters="sRGB">
<feFlood flood-opacity="0" result="BackgroundImageFix"/>
<feColorMatrix in="SourceAlpha" type="matrix" values="0 0 0 0 0 0 0 0 0 0 0 0 0 0 0 0 0 0 127 0" result="hardAlpha"/>
<feOffset dy="1"/>
<feGaussianBlur stdDeviation="1"/>
<feComposite in2="hardAlpha" operator="out"/>
<feColorMatrix type="matrix" values="0 0 0 0 0.0627451 0 0 0 0 0.0941176 0 0 0 0 0.156863 0 0 0 0.04 0"/>
<feBlend mode="normal" in2="BackgroundImageFix" result="effect1_dropShadow_3_17260"/>
<feBlend mode="normal" in="SourceGraphic" in2="effect1_dropShadow_3_17260" result="shape"/>
</filter>
<filter id="filter8_d_3_17260" x="938" y="134.5" width="92" height="92" filterUnits="userSpaceOnUse" color-interpolation-filters="sRGB">
<feFlood flood-opacity="0" result="BackgroundImageFix"/>
<feColorMatrix in="SourceAlpha" type="matrix" values="0 0 0 0 0 0 0 0 0 0 0 0 0 0 0 0 0 0 127 0" result="hardAlpha"/>
<feOffset dy="1"/>
<feGaussianBlur stdDeviation="1"/>
<feComposite in2="hardAlpha" operator="out"/>
<feColorMatrix type="matrix" values="0 0 0 0 0.0627451 0 0 0 0 0.0941176 0 0 0 0 0.156863 0 0 0 0.04 0"/>
<feBlend mode="normal" in2="BackgroundImageFix" result="effect1_dropShadow_3_17260"/>
<feBlend mode="normal" in="SourceGraphic" in2="effect1_dropShadow_3_17260" result="shape"/>
</filter>
<filter id="filter9_d_3_17260" x="634" y="136.5" width="68" height="68" filterUnits="userSpaceOnUse" color-interpolation-filters="sRGB">
<feFlood flood-opacity="0" result="BackgroundImageFix"/>
<feColorMatrix in="SourceAlpha" type="matrix" values="0 0 0 0 0 0 0 0 0 0 0 0 0 0 0 0 0 0 127 0" result="hardAlpha"/>
<feOffset dy="1"/>
<feGaussianBlur stdDeviation="1"/>
<feComposite in2="hardAlpha" operator="out"/>
<feColorMatrix type="matrix" values="0 0 0 0 0.0627451 0 0 0 0 0.0941176 0 0 0 0 0.156863 0 0 0 0.04 0"/>
<feBlend mode="normal" in2="BackgroundImageFix" result="effect1_dropShadow_3_17260"/>
<feBlend mode="normal" in="SourceGraphic" in2="effect1_dropShadow_3_17260" result="shape"/>
</filter>
<filter id="filter10_d_3_17260" x="1050" y="217.5" width="68" height="68" filterUnits="userSpaceOnUse" color-interpolation-filters="sRGB">
<feFlood flood-opacity="0" result="BackgroundImageFix"/>
<feColorMatrix in="SourceAlpha" type="matrix" values="0 0 0 0 0 0 0 0 0 0 0 0 0 0 0 0 0 0 127 0" result="hardAlpha"/>
<feOffset dy="1"/>
<feGaussianBlur stdDeviation="1"/>
<feComposite in2="hardAlpha" operator="out"/>
<feColorMatrix type="matrix" values="0 0 0 0 0.0627451 0 0 0 0 0.0941176 0 0 0 0 0.156863 0 0 0 0.04 0"/>
<feBlend mode="normal" in2="BackgroundImageFix" result="effect1_dropShadow_3_17260"/>
<feBlend mode="normal" in="SourceGraphic" in2="effect1_dropShadow_3_17260" result="shape"/>
</filter>
<filter id="filter11_d_3_17260" x="1190" y="37.5" width="68" height="68" filterUnits="userSpaceOnUse" color-interpolation-filters="sRGB">
<feFlood flood-opacity="0" result="BackgroundImageFix"/>
<feColorMatrix in="SourceAlpha" type="matrix" values="0 0 0 0 0 0 0 0 0 0 0 0 0 0 0 0 0 0 127 0" result="hardAlpha"/>
<feOffset dy="1"/>
<feGaussianBlur stdDeviation="1"/>
<feComposite in2="hardAlpha" operator="out"/>
<feColorMatrix type="matrix" values="0 0 0 0 0.0627451 0 0 0 0 0.0941176 0 0 0 0 0.156863 0 0 0 0.04 0"/>
<feBlend mode="normal" in2="BackgroundImageFix" result="effect1_dropShadow_3_17260"/>
<feBlend mode="normal" in="SourceGraphic" in2="effect1_dropShadow_3_17260" result="shape"/>
</filter>
<filter id="filter12_d_3_17260" x="1302" y="259.5" width="68" height="68" filterUnits="userSpaceOnUse" color-interpolation-filters="sRGB">
<feFlood flood-opacity="0" result="BackgroundImageFix"/>
<feColorMatrix in="SourceAlpha" type="matrix" values="0 0 0 0 0 0 0 0 0 0 0 0 0 0 0 0 0 0 127 0" result="hardAlpha"/>
<feOffset dy="1"/>
<feGaussianBlur stdDeviation="1"/>
<feComposite in2="hardAlpha" operator="out"/>
<feColorMatrix type="matrix" values="0 0 0 0 0.0627451 0 0 0 0 0.0941176 0 0 0 0 0.156863 0 0 0 0.04 0"/>
<feBlend mode="normal" in2="BackgroundImageFix" result="effect1_dropShadow_3_17260"/>
<feBlend mode="normal" in="SourceGraphic" in2="effect1_dropShadow_3_17260" result="shape"/>
</filter>
<filter id="filter13_d_3_17260" x="346" y="37.5" width="68" height="68" filterUnits="userSpaceOnUse" color-interpolation-filters="sRGB">
<feFlood flood-opacity="0" result="BackgroundImageFix"/>
<feColorMatrix in="SourceAlpha" type="matrix" values="0 0 0 0 0 0 0 0 0 0 0 0 0 0 0 0 0 0 127 0" result="hardAlpha"/>
<feOffset dy="1"/>
<feGaussianBlur stdDeviation="1"/>
<feComposite in2="hardAlpha" operator="out"/>
<feColorMatrix type="matrix" values="0 0 0 0 0.0627451 0 0 0 0 0.0941176 0 0 0 0 0.156863 0 0 0 0.04 0"/>
<feBlend mode="normal" in2="BackgroundImageFix" result="effect1_dropShadow_3_17260"/>
<feBlend mode="normal" in="SourceGraphic" in2="effect1_dropShadow_3_17260" result="shape"/>
</filter>
<filter id="filter14_d_3_17260" x="7" y="87.5" width="68" height="68" filterUnits="userSpaceOnUse" color-interpolation-filters="sRGB">
<feFlood flood-opacity="0" result="BackgroundImageFix"/>
<feColorMatrix in="SourceAlpha" type="matrix" values="0 0 0 0 0 0 0 0 0 0 0 0 0 0 0 0 0 0 127 0" result="hardAlpha"/>
<feOffset dy="1"/>
<feGaussianBlur stdDeviation="1"/>
<feComposite in2="hardAlpha" operator="out"/>
<feColorMatrix type="matrix" values="0 0 0 0 0.0627451 0 0 0 0 0.0941176 0 0 0 0 0.156863 0 0 0 0.04 0"/>
<feBlend mode="normal" in2="BackgroundImageFix" result="effect1_dropShadow_3_17260"/>
<feBlend mode="normal" in="SourceGraphic" in2="effect1_dropShadow_3_17260" result="shape"/>
</filter>
<filter id="filter15_d_3_17260" x="47" y="288.5" width="68" height="68" filterUnits="userSpaceOnUse" color-interpolation-filters="sRGB">
<feFlood flood-opacity="0" result="BackgroundImageFix"/>
<feColorMatrix in="SourceAlpha" type="matrix" values="0 0 0 0 0 0 0 0 0 0 0 0 0 0 0 0 0 0 127 0" result="hardAlpha"/>
<feOffset dy="1"/>
<feGaussianBlur stdDeviation="1"/>
<feComposite in2="hardAlpha" operator="out"/>
<feColorMatrix type="matrix" values="0 0 0 0 0.0627451 0 0 0 0 0.0941176 0 0 0 0 0.156863 0 0 0 0.04 0"/>
<feBlend mode="normal" in2="BackgroundImageFix" result="effect1_dropShadow_3_17260"/>
<feBlend mode="normal" in="SourceGraphic" in2="effect1_dropShadow_3_17260" result="shape"/>
</filter>
<filter id="filter16_d_3_17260" x="1174" y="201.5" width="92" height="92" filterUnits="userSpaceOnUse" color-interpolation-filters="sRGB">
<feFlood flood-opacity="0" result="BackgroundImageFix"/>
<feColorMatrix in="SourceAlpha" type="matrix" values="0 0 0 0 0 0 0 0 0 0 0 0 0 0 0 0 0 0 127 0" result="hardAlpha"/>
<feOffset dy="1"/>
<feGaussianBlur stdDeviation="1"/>
<feComposite in2="hardAlpha" operator="out"/>
<feColorMatrix type="matrix" values="0 0 0 0 0.0627451 0 0 0 0 0.0941176 0 0 0 0 0.156863 0 0 0 0.04 0"/>
<feBlend mode="normal" in2="BackgroundImageFix" result="effect1_dropShadow_3_17260"/>
<feBlend mode="normal" in="SourceGraphic" in2="effect1_dropShadow_3_17260" result="shape"/>
</filter>
<filter id="filter17_d_3_17260" x="1402" y="212.5" width="92" height="92" filterUnits="userSpaceOnUse" color-interpolation-filters="sRGB">
<feFlood flood-opacity="0" result="BackgroundImageFix"/>
<feColorMatrix in="SourceAlpha" type="matrix" values="0 0 0 0 0 0 0 0 0 0 0 0 0 0 0 0 0 0 127 0" result="hardAlpha"/>
<feOffset dy="1"/>
<feGaussianBlur stdDeviation="1"/>
<feComposite in2="hardAlpha" operator="out"/>
<feColorMatrix type="matrix" values="0 0 0 0 0.0627451 0 0 0 0 0.0941176 0 0 0 0 0.156863 0 0 0 0.04 0"/>
<feBlend mode="normal" in2="BackgroundImageFix" result="effect1_dropShadow_3_17260"/>
<feBlend mode="normal" in="SourceGraphic" in2="effect1_dropShadow_3_17260" result="shape"/>
</filter>
<filter id="filter18_d_3_17260" x="1418" y="26.5" width="92" height="92" filterUnits="userSpaceOnUse" color-interpolation-filters="sRGB">
<feFlood flood-opacity="0" result="BackgroundImageFix"/>
<feColorMatrix in="SourceAlpha" type="matrix" values="0 0 0 0 0 0 0 0 0 0 0 0 0 0 0 0 0 0 127 0" result="hardAlpha"/>
<feOffset dy="1"/>
<feGaussianBlur stdDeviation="1"/>
<feComposite in2="hardAlpha" operator="out"/>
<feColorMatrix type="matrix" values="0 0 0 0 0.0627451 0 0 0 0 0.0941176 0 0 0 0 0.156863 0 0 0 0.04 0"/>
<feBlend mode="normal" in2="BackgroundImageFix" result="effect1_dropShadow_3_17260"/>
<feBlend mode="normal" in="SourceGraphic" in2="effect1_dropShadow_3_17260" result="shape"/>
</filter>
<filter id="filter19_d_3_17260" x="550" y="233.5" width="124" height="124" filterUnits="userSpaceOnUse" color-interpolation-filters="sRGB">
<feFlood flood-opacity="0" result="BackgroundImageFix"/>
<feColorMatrix in="SourceAlpha" type="matrix" values="0 0 0 0 0 0 0 0 0 0 0 0 0 0 0 0 0 0 127 0" result="hardAlpha"/>
<feOffset dy="1"/>
<feGaussianBlur stdDeviation="1"/>
<feComposite in2="hardAlpha" operator="out"/>
<feColorMatrix type="matrix" values="0 0 0 0 0.0627451 0 0 0 0 0.0941176 0 0 0 0 0.156863 0 0 0 0.04 0"/>
<feBlend mode="normal" in2="BackgroundImageFix" result="effect1_dropShadow_3_17260"/>
<feBlend mode="normal" in="SourceGraphic" in2="effect1_dropShadow_3_17260" result="shape"/>
</filter>
<filter id="filter20_d_3_17260" x="789" y="26.5" width="124" height="124" filterUnits="userSpaceOnUse" color-interpolation-filters="sRGB">
<feFlood flood-opacity="0" result="BackgroundImageFix"/>
<feColorMatrix in="SourceAlpha" type="matrix" values="0 0 0 0 0 0 0 0 0 0 0 0 0 0 0 0 0 0 127 0" result="hardAlpha"/>
<feOffset dy="1"/>
<feGaussianBlur stdDeviation="1"/>
<feComposite in2="hardAlpha" operator="out"/>
<feColorMatrix type="matrix" values="0 0 0 0 0.0627451 0 0 0 0 0.0941176 0 0 0 0 0.156863 0 0 0 0.04 0"/>
<feBlend mode="normal" in2="BackgroundImageFix" result="effect1_dropShadow_3_17260"/>
<feBlend mode="normal" in="SourceGraphic" in2="effect1_dropShadow_3_17260" result="shape"/>
</filter>
<filter id="filter21_d_3_17260" x="715" y="173.5" width="124" height="124" filterUnits="userSpaceOnUse" color-interpolation-filters="sRGB">
<feFlood flood-opacity="0" result="BackgroundImageFix"/>
<feColorMatrix in="SourceAlpha" type="matrix" values="0 0 0 0 0 0 0 0 0 0 0 0 0 0 0 0 0 0 127 0" result="hardAlpha"/>
<feOffset dy="1"/>
<feGaussianBlur stdDeviation="1"/>
<feComposite in2="hardAlpha" operator="out"/>
<feColorMatrix type="matrix" values="0 0 0 0 0.0627451 0 0 0 0 0.0941176 0 0 0 0 0.156863 0 0 0 0.04 0"/>
<feBlend mode="normal" in2="BackgroundImageFix" result="effect1_dropShadow_3_17260"/>
<feBlend mode="normal" in="SourceGraphic" in2="effect1_dropShadow_3_17260" result="shape"/>
</filter>
<filter id="filter22_d_3_17260" x="1274" y="94.5" width="124" height="124" filterUnits="userSpaceOnUse" color-interpolation-filters="sRGB">
<feFlood flood-opacity="0" result="BackgroundImageFix"/>
<feColorMatrix in="SourceAlpha" type="matrix" values="0 0 0 0 0 0 0 0 0 0 0 0 0 0 0 0 0 0 127 0" result="hardAlpha"/>
<feOffset dy="1"/>
<feGaussianBlur stdDeviation="1"/>
<feComposite in2="hardAlpha" operator="out"/>
<feColorMatrix type="matrix" values="0 0 0 0 0.0627451 0 0 0 0 0.0941176 0 0 0 0 0.156863 0 0 0 0.04 0"/>
<feBlend mode="normal" in2="BackgroundImageFix" result="effect1_dropShadow_3_17260"/>
<feBlend mode="normal" in="SourceGraphic" in2="effect1_dropShadow_3_17260" result="shape"/>
</filter>
<filter id="filter23_d_3_17260" x="1035" y="37.5" width="124" height="124" filterUnits="userSpaceOnUse" color-interpolation-filters="sRGB">
<feFlood flood-opacity="0" result="BackgroundImageFix"/>
<feColorMatrix in="SourceAlpha" type="matrix" values="0 0 0 0 0 0 0 0 0 0 0 0 0 0 0 0 0 0 127 0" result="hardAlpha"/>
<feOffset dy="1"/>
<feGaussianBlur stdDeviation="1"/>
<feComposite in2="hardAlpha" operator="out"/>
<feColorMatrix type="matrix" values="0 0 0 0 0.0627451 0 0 0 0 0.0941176 0 0 0 0 0.156863 0 0 0 0.04 0"/>
<feBlend mode="normal" in2="BackgroundImageFix" result="effect1_dropShadow_3_17260"/>
<feBlend mode="normal" in="SourceGraphic" in2="effect1_dropShadow_3_17260" result="shape"/>
</filter>
<linearGradient id="paint0_linear_3_17260" x1="394.91" y1="60.2472" x2="382.622" y2="87.3014" gradientUnits="userSpaceOnUse">
<stop stop-color="#0052CC"/>
<stop offset="0.92" stop-color="#2684FF"/>
</linearGradient>
<linearGradient id="paint1_linear_3_17260" x1="1430.46" y1="286.062" x2="1465.54" y2="286.062" gradientUnits="userSpaceOnUse">
<stop stop-color="#8930FD"/>
<stop offset="1" stop-color="#49CCF9"/>
</linearGradient>
<linearGradient id="paint2_linear_3_17260" x1="1430.46" y1="286.062" x2="1465.54" y2="286.062" gradientUnits="userSpaceOnUse">
<stop stop-color="#FF02F0"/>
<stop offset="1" stop-color="#FFC800"/>
</linearGradient>
<linearGradient id="paint3_linear_3_17260" x1="777.026" y1="261.483" x2="777.026" y2="207.517" gradientUnits="userSpaceOnUse">
<stop stop-color="#0052CC"/>
<stop offset="1" stop-color="#2684FF"/>
</linearGradient>
</defs>
</svg>
