<svg width="20" height="20" viewBox="0 0 20 20" fill="none" xmlns="http://www.w3.org/2000/svg">
<g clip-path="url(#clip0_8682_14797)">
<path d="M18.4595 19.8725C18.8501 20.263 19.4832 20.263 19.8738 19.8725C20.2643 19.4819 20.2643 18.8488 19.8738 18.4583L18.4595 19.8725ZM14.9314 8.38105C14.9314 11.998 11.9993 14.9301 8.38233 14.9301V16.9301C13.1038 16.9301 16.9314 13.1025 16.9314 8.38105H14.9314ZM8.38233 14.9301C4.76541 14.9301 1.83331 11.998 1.83331 8.38105H-0.166687C-0.166687 13.1025 3.66084 16.9301 8.38233 16.9301V14.9301ZM1.83331 8.38105C1.83331 4.76413 4.76541 1.83203 8.38233 1.83203V-0.167969C3.66084 -0.167969 -0.166687 3.65956 -0.166687 8.38105H1.83331ZM8.38233 1.83203C11.9993 1.83203 14.9314 4.76413 14.9314 8.38105H16.9314C16.9314 3.65956 13.1038 -0.167969 8.38233 -0.167969V1.83203ZM13.0674 14.4803L18.4595 19.8725L19.8738 18.4583L14.4816 13.0661L13.0674 14.4803Z" fill="#919BA7"/>
</g>
<defs>
<clipPath id="clip0_8682_14797">
<rect width="20" height="20" fill="white"/>
</clipPath>
</defs>
</svg>
